<svg width="48" height="48" viewBox="0 0 48 48" fill="none" xmlns="http://www.w3.org/2000/svg">
<mask id="mask0_14266_14090" style="mask-type:alpha" maskUnits="userSpaceOnUse" x="0" y="0" width="48" height="48">
<path d="M0 6C0 2.68629 2.68629 0 6 0H48V48H6C2.68629 48 0 45.3137 0 42V6Z" fill="#D9D9D9"/>
</mask>
<g mask="url(#mask0_14266_14090)">
<mask id="mask1_14266_14090" style="mask-type:luminance" maskUnits="userSpaceOnUse" x="0" y="-4" width="52" height="52">
<path d="M52 -4H0V48H52V-4Z" fill="white"/>
</mask>
<g mask="url(#mask1_14266_14090)">
<path d="M26.078 29.7047C26.1311 29.1777 26.3476 28.6805 26.6972 28.2827C27.0469 27.8849 27.5122 27.6063 28.028 27.4861C28.0565 26.891 28.2962 26.3256 28.704 25.8914V13.4894C28.704 13.1359 28.6339 12.7859 28.4975 12.4598C28.3612 12.1337 28.1615 11.8379 27.91 11.5895C27.6584 11.3412 27.36 11.1453 27.0322 11.0132C26.7043 10.8811 26.3534 10.8155 26 10.8201H11.882C11.2691 10.8254 10.6766 11.0409 10.2034 11.4305C9.73019 11.8201 9.40496 12.3602 9.282 12.9607C9.24022 12.2847 8.94301 11.6498 8.45058 11.1847C7.95814 10.7196 7.30733 10.4592 6.63 10.4561H3.77867C3.06912 10.4583 2.38929 10.7412 1.88756 11.2429C1.38583 11.7447 1.10295 12.4245 1.10067 13.1341V14.0787H0V42.0201H25.48C23.1747 38.4667 25.6447 33.3447 26.078 29.7047Z" fill="#A4DCFF"/>
<path d="M24.8391 36.3174C25.2378 34.2807 25.8791 32.2614 26.0785 30.5714C26.14 30.0474 26.3595 29.5545 26.7078 29.1582C27.0561 28.7619 27.5167 28.481 28.0285 28.3527C28.0443 27.9772 28.1444 27.61 28.3215 27.2785C28.4985 26.9469 28.7479 26.6594 29.0511 26.4374C31.5731 24.5567 33.4971 21.9134 35.8111 19.7987C37.9865 17.814 40.8725 15.76 42.5018 13.264L39.8151 10.456C39.5716 10.2022 39.2805 9.99876 38.9583 9.85744C38.6362 9.71611 38.2893 9.63965 37.9376 9.6324C37.5859 9.62516 37.2362 9.68728 36.9085 9.81522C36.5808 9.94316 36.2816 10.1344 36.0278 10.378L25.8185 20.18C25.3727 20.6055 25.0884 21.1724 25.0141 21.7841C24.9398 22.3958 25.0802 23.0143 25.4111 23.534C24.9111 23.0768 24.2558 22.8269 23.5782 22.8349C22.9007 22.843 22.2516 23.1084 21.7625 23.5774L19.7258 25.5274C19.4722 25.7701 19.269 26.0606 19.1278 26.382C18.9866 26.7034 18.9102 27.0495 18.9029 27.4005C18.8957 27.7515 18.9577 28.1005 19.0856 28.4275C19.2134 28.7545 19.4044 29.053 19.6478 29.306L20.2978 29.9907L19.5005 30.7534L24.8391 36.3174Z" fill="#A4DCFF"/>
<path d="M39.0288 10.9729L34.7031 16.043L39.5557 20.183L43.8814 15.1129L39.0288 10.9729Z" fill="#3C00BC"/>
<path d="M38.0294 11.2039L34.2324 15.6543L40.0014 20.5763L43.7984 16.1259L38.0294 11.2039Z" fill="#5F2EEA"/>
<path d="M40.5411 7.53712L38.4485 9.98976C38.2062 10.2738 38.24 10.7005 38.524 10.9428L43.9765 15.5947C44.2606 15.8371 44.6873 15.8033 44.9296 15.5192L47.0221 13.0666C47.2644 12.7826 47.2306 12.3559 46.9466 12.1136L41.4941 7.46161C41.2101 7.21929 40.7834 7.2531 40.5411 7.53712Z" fill="#D3BA38"/>
<path d="M42.1981 8.47958L40.7074 10.2129C40.6493 10.2813 40.5781 10.3375 40.498 10.3781C40.4179 10.4186 40.3305 10.4429 40.241 10.4493C40.1514 10.4558 40.0615 10.4443 39.9764 10.4157C39.8913 10.387 39.8128 10.3416 39.7454 10.2822C39.608 10.1647 39.5227 9.99756 39.5081 9.81733C39.4935 9.6371 39.5508 9.4584 39.6674 9.32025L41.1581 7.58691L42.1981 8.47958Z" fill="#A28908"/>
<path d="M43.7672 9.81356L42.2765 11.5469C42.159 11.6843 41.9919 11.7696 41.8116 11.7842C41.6314 11.7988 41.4527 11.7416 41.3145 11.6249C41.1766 11.5058 41.091 11.3372 41.0764 11.1556C41.0619 10.9739 41.1194 10.7938 41.2365 10.6542L42.7272 8.9209L43.7672 9.81356Z" fill="#A28908"/>
<path d="M45.3278 11.1489L43.8458 12.8822C43.7233 12.9908 43.5659 13.0519 43.4021 13.0544C43.2384 13.0569 43.0792 13.0006 42.9534 12.8958C42.8276 12.791 42.7435 12.6445 42.7165 12.483C42.6894 12.3215 42.7211 12.1557 42.8058 12.0156L44.2878 10.2822L45.3278 11.1489Z" fill="#A28908"/>
<path d="M46.8952 12.4663L45.4132 14.1996C45.2941 14.3376 45.1255 14.4231 44.9438 14.4377C44.7622 14.4523 44.5821 14.3948 44.4425 14.2776C44.3095 14.1606 44.2277 13.9961 44.2147 13.8194C44.2017 13.6428 44.2586 13.4681 44.3732 13.3329L45.8552 11.5996L46.8952 12.4663Z" fill="#A28908"/>
<path fill-rule="evenodd" clip-rule="evenodd" d="M30.863 11.9119L29.2943 10.5253C28.8306 10.1119 28.2341 9.87823 27.613 9.8666H13.8676C13.5329 9.86685 13.2015 9.80116 12.8922 9.67327C12.5829 9.54538 12.3018 9.35781 12.065 9.12127L11.961 9.01727C11.6794 8.73809 11.3452 8.5177 10.9777 8.36891C10.6102 8.22012 10.2168 8.14591 9.82031 8.1506H28.601C29.2161 8.1469 29.8112 8.36891 30.2736 8.7746L35.3696 13.2119C34.8362 12.7763 34.169 12.5376 33.4803 12.5359H32.5443C31.9265 12.5401 31.3285 12.3182 30.863 11.9119Z" fill="#5F2EEA"/>
<path fill-rule="evenodd" clip-rule="evenodd" d="M7.37598 7.50017H9.81132C10.2077 7.49596 10.601 7.57039 10.9684 7.71915C11.3359 7.86792 11.6702 8.08805 11.952 8.36684L12.8187 9.2335L14.552 10.9668C15.1234 11.5267 15.8927 11.8382 16.6927 11.8335H33.506C34.1947 11.8352 34.8619 12.0739 35.3953 12.5095L35.4993 12.5788L39.642 16.2102L42.9353 19.0875L43.3167 19.4168C43.6403 19.7019 43.8997 20.0526 44.0775 20.4456C44.2553 20.8385 44.3475 21.2648 44.348 21.6962V60.1328C44.3488 60.3547 44.3226 60.5759 44.27 60.7915C44.1126 61.4827 43.7168 62.0964 43.152 62.5248C42.6295 62.9399 41.9819 63.1659 41.3147 63.1662H7.37598C6.97691 63.1673 6.58154 63.0897 6.21252 62.9378C5.84349 62.7858 5.50808 62.5626 5.22549 62.2808C4.9429 61.999 4.71869 61.6642 4.56571 61.2956C4.41273 60.9271 4.33398 60.5319 4.33398 60.1328V10.5335C4.33472 10.0855 4.4385 9.64365 4.63732 9.24217C4.88194 8.72222 5.26921 8.28245 5.75406 7.97406C6.2389 7.66566 6.80137 7.50132 7.37598 7.50017Z" fill="url(#paint0_linear_14266_14090)"/>
<path fill-rule="evenodd" clip-rule="evenodd" d="M37.5965 19.8503C37.6665 19.7541 37.7547 19.6727 37.8562 19.6106C37.9577 19.5486 38.0704 19.5071 38.1879 19.4886C38.3053 19.4701 38.4253 19.4749 38.541 19.5027C38.6566 19.5306 38.7656 19.581 38.8618 19.651C38.958 19.721 39.0394 19.8092 39.1015 19.9107C39.1635 20.0122 39.205 20.1249 39.2235 20.2423C39.242 20.3598 39.2372 20.4798 39.2094 20.5955C39.1815 20.7111 39.1311 20.8201 39.0611 20.9163L27.7338 36.5163C27.5924 36.7105 27.3797 36.8406 27.1424 36.878C26.9051 36.9154 26.6627 36.857 26.4685 36.7156C26.2742 36.5743 26.1441 36.3615 26.1067 36.1242C26.0694 35.887 26.1278 35.6445 26.2691 35.4503L37.5965 19.8503Z" fill="url(#paint1_linear_14266_14090)"/>
<path fill-rule="evenodd" clip-rule="evenodd" d="M20.9916 36.5163L9.63827 20.9163C9.56828 20.8201 9.51791 20.7111 9.49005 20.5955C9.46218 20.4798 9.45737 20.3598 9.47588 20.2423C9.49439 20.1249 9.53586 20.0122 9.59792 19.9107C9.65999 19.8092 9.74143 19.721 9.8376 19.651C9.93378 19.581 10.0428 19.5306 10.1584 19.5027C10.2741 19.4749 10.3941 19.4701 10.5116 19.4886C10.6291 19.5071 10.7418 19.5486 10.8432 19.6106C10.9447 19.6727 11.0329 19.7541 11.1029 19.8503L22.4563 35.4503C22.5976 35.6445 22.656 35.887 22.6187 36.1242C22.5813 36.3615 22.4512 36.5743 22.2569 36.7156C22.0627 36.857 21.8203 36.9154 21.583 36.878C21.3457 36.8406 21.133 36.7105 20.9916 36.5163Z" fill="url(#paint2_linear_14266_14090)"/>
<path fill-rule="evenodd" clip-rule="evenodd" d="M27.7338 40.7976L39.0958 56.3976C39.1658 56.4937 39.2162 56.6028 39.244 56.7184C39.2719 56.834 39.2767 56.954 39.2582 57.0715C39.2397 57.189 39.1982 57.3017 39.1361 57.4032C39.0741 57.5047 38.9926 57.5929 38.8965 57.6629C38.8003 57.7329 38.6913 57.7833 38.5756 57.8111C38.46 57.839 38.34 57.8438 38.2225 57.8253C38.105 57.8068 37.9923 57.7653 37.8909 57.7033C37.7894 57.6412 37.7011 57.5597 37.6311 57.4636L26.2691 41.8636C26.1278 41.6693 26.0694 41.4269 26.1067 41.1896C26.1441 40.9523 26.2742 40.7396 26.4685 40.5982C26.6627 40.4569 26.9051 40.3985 27.1424 40.4358C27.3797 40.4732 27.5924 40.6033 27.7338 40.7976Z" fill="url(#paint3_linear_14266_14090)"/>
<path fill-rule="evenodd" clip-rule="evenodd" d="M20.9916 40.7976C21.133 40.6033 21.3457 40.4732 21.583 40.4358C21.8203 40.3985 22.0627 40.4569 22.2569 40.5982C22.4512 40.7396 22.5813 40.9523 22.6187 41.1896C22.656 41.4269 22.5976 41.6693 22.4563 41.8636L11.1029 57.4636C11.0329 57.5597 10.9447 57.6412 10.8432 57.7032C10.7418 57.7653 10.6291 57.8068 10.5116 57.8253C10.2743 57.8627 10.0318 57.8043 9.83761 57.6629C9.64338 57.5215 9.51326 57.3088 9.47588 57.0715C9.4385 56.8342 9.49691 56.5918 9.63827 56.3976L20.9916 40.7976Z" fill="url(#paint4_linear_14266_14090)"/>
<g style="mix-blend-mode:multiply" opacity="0.15">
<path fill-rule="evenodd" clip-rule="evenodd" d="M5.13998 54.777C22.17 54.777 36.8947 40.6417 43.8627 20.1104C44.1746 20.5905 44.343 21.1498 44.348 21.7224V60.133C44.3488 60.3549 44.3226 60.5761 44.27 60.7917C44.1126 61.4829 43.7168 62.0966 43.152 62.525C42.6295 62.9401 41.9819 63.1661 41.3147 63.1664H7.37598C6.97691 63.1675 6.58154 63.0899 6.21252 62.9379C5.84349 62.786 5.50808 62.5628 5.22549 62.281C4.9429 61.9992 4.71869 61.6644 4.56571 61.2958C4.41273 60.9272 4.33398 60.5321 4.33398 60.133V54.7597L5.13998 54.777Z" fill="#1D1D1B"/>
</g>
<path d="M10.3324 8.64453H3.65039V10.4212H10.3324V8.64453Z" fill="#84630C"/>
<path d="M0.952787 42.9906C0.779454 28.5433 3.61345 12.9606 9.27279 11.3486C1.61145 7.43995 -2.26255 25.7873 -2.05455 42.5919C-2.05455 43.8515 -2.05455 45.0302 -2.05455 46.1279C-2.09464 46.6398 -1.93744 47.1476 -1.61515 47.5472C-1.29287 47.9468 -0.829918 48.208 -0.321213 48.2773H1.73279C1.49518 48.0549 1.3051 47.7866 1.17402 47.4887C1.04294 47.1908 0.973578 46.8694 0.97012 46.5439C0.941231 45.4346 0.935454 44.2502 0.952787 42.9906Z" fill="#A28908"/>
<path d="M10.8938 12.4053V10.386C10.8938 10.2986 10.8591 10.2149 10.7974 10.1531C10.7356 10.0913 10.6518 10.0566 10.5645 10.0566H3.40581C3.31847 10.0566 3.2347 10.0913 3.17294 10.1531C3.11118 10.2149 3.07648 10.2986 3.07648 10.386V12.622C3.07648 12.7093 3.11118 12.7931 3.17294 12.8548C3.2347 12.9166 3.31847 12.9513 3.40581 12.9513H6.93315C6.55468 13.3846 6.21263 13.8484 5.91048 14.338C5.66782 14.338 5.40781 14.338 5.13915 14.338H4.96581C4.92294 14.3291 4.87869 14.3291 4.83581 14.338H2.33981C2.28152 14.3359 2.22381 14.3503 2.17326 14.3794C2.12271 14.4085 2.08133 14.4512 2.05381 14.5026C1.85448 14.858 1.66381 15.222 1.48181 15.612C1.45882 15.6631 1.44889 15.7191 1.45292 15.775C1.45695 15.8309 1.4748 15.8849 1.50489 15.9321C1.53497 15.9794 1.57633 16.0185 1.62525 16.0458C1.67418 16.0731 1.72912 16.0878 1.78515 16.0886H5.00048C4.82715 16.4613 4.66248 16.8513 4.49781 17.2673H1.03115C0.964158 17.2661 0.898402 17.2854 0.842654 17.3226C0.786907 17.3597 0.743822 17.413 0.719148 17.4753C0.589148 17.8393 0.459148 18.2033 0.337814 18.5846C0.323249 18.6341 0.320174 18.6862 0.328825 18.7369C0.337476 18.7877 0.357623 18.8359 0.387728 18.8777C0.417832 18.9195 0.457097 18.9539 0.502521 18.9782C0.547945 19.0025 0.598326 19.0161 0.649815 19.018H3.86515C3.74381 19.3993 3.62248 19.7893 3.50115 20.188H0.0864811C0.0144374 20.1901 -0.0551617 20.2146 -0.112634 20.2581C-0.170106 20.3016 -0.212594 20.3619 -0.234185 20.4306L-0.520186 21.4966C-0.530472 21.5457 -0.52971 21.5965 -0.517953 21.6452C-0.506196 21.694 -0.483741 21.7395 -0.452213 21.7785C-0.420685 21.8175 -0.380876 21.849 -0.335671 21.8707C-0.290466 21.8924 -0.240997 21.9038 -0.190852 21.904H3.03315C2.93781 22.294 2.85115 22.684 2.76448 23.0826H-0.615519C-0.6906 23.0829 -0.763327 23.1089 -0.821647 23.1562C-0.879968 23.2034 -0.92038 23.2692 -0.936186 23.3426C-1.01419 23.7066 -1.08352 24.0706 -1.15285 24.4433C-1.16172 24.4906 -1.16011 24.5393 -1.14814 24.5859C-1.13616 24.6325 -1.11411 24.676 -1.08354 24.7131C-1.05297 24.7503 -1.01462 24.7804 -0.971196 24.8011C-0.927768 24.8219 -0.880318 24.8329 -0.832186 24.8333H2.40048L2.19248 26.012H-1.15285C-1.23189 26.011 -1.30865 26.0385 -1.36911 26.0894C-1.42958 26.1403 -1.46971 26.2113 -1.48219 26.2893C-1.53419 26.6533 -1.59485 27.0173 -1.64685 27.3813C-1.65443 27.4287 -1.65157 27.4772 -1.63845 27.5234C-1.62533 27.5695 -1.60227 27.6123 -1.5709 27.6486C-1.53953 27.6849 -1.5006 27.7139 -1.45683 27.7336C-1.41306 27.7533 -1.36551 27.7632 -1.31752 27.7626H1.91515C1.85448 28.1526 1.80248 28.5426 1.75048 28.9413H-1.56885C-1.64868 28.9424 -1.72555 28.9717 -1.78583 29.0241C-1.84611 29.0764 -1.88591 29.1484 -1.89819 29.2273C-1.94152 29.5913 -1.98485 29.9553 -2.01952 30.3193C-2.01952 30.3193 -2.01952 30.3193 -2.01952 30.38C-2.45463 34.4353 -2.64853 38.513 -2.60019 42.5913C-2.60019 43.848 -2.60019 45.0266 -2.60019 46.1273C-2.6369 46.648 -2.47059 47.1626 -2.13612 47.5633C-1.80166 47.9641 -1.32503 48.2197 -0.806186 48.2766H19.4305C19.8255 48.2542 20.2019 48.1017 20.5013 47.8431C20.8007 47.5845 21.0062 47.2342 21.0858 46.8466C21.4466 45.4585 21.5956 44.0239 21.5278 42.5913C21.7271 35.346 18.0958 18.0733 10.8938 12.4053ZM16.5271 29.1666H11.5698C11.3905 29.1666 11.2186 29.0954 11.0918 28.9686C10.965 28.8419 10.8938 28.6699 10.8938 28.4906V15.9846C10.877 15.8333 10.9118 15.6807 10.9925 15.5516C11.0732 15.4225 11.1952 15.3244 11.3386 15.2733C11.482 15.2221 11.6385 15.2209 11.7827 15.2698C11.9269 15.3187 12.0504 15.4148 12.1331 15.5426C12.4105 15.9413 12.2891 16.6173 12.5578 17.0506C12.8265 17.484 13.4678 17.6573 13.7105 18.0993C13.9531 18.5413 13.7538 19.1913 13.9791 19.642C14.2045 20.0926 14.8458 20.3353 15.0365 20.7946C15.2271 21.254 15.0365 21.8866 15.1751 22.346C15.3138 22.8053 15.9811 23.1 16.1545 23.568C16.3278 24.036 16.0418 24.66 16.2065 25.1366C16.3711 25.6133 16.9691 25.934 17.0731 26.4106C17.1771 26.8873 16.9085 27.494 17.0731 27.9706C17.0887 28.0312 17.112 28.0894 17.1425 28.144C17.2025 28.2496 17.2334 28.3693 17.2318 28.4908C17.2303 28.6123 17.1965 28.7312 17.1339 28.8353C17.0712 28.9394 16.982 29.0249 16.8754 29.0832C16.7688 29.1414 16.6486 29.1702 16.5271 29.1666Z" fill="url(#paint5_linear_14266_14090)"/>
<path d="M10.6428 8.99995V5.16062C10.6428 4.98593 10.5734 4.8184 10.4499 4.69487C10.3263 4.57135 10.1588 4.50195 9.98413 4.50195H3.98679C3.8121 4.50195 3.64457 4.57135 3.52104 4.69487C3.39752 4.8184 3.32812 4.98593 3.32812 5.16062V8.99995H10.6428Z" fill="#C1A71B"/>
<path d="M10.644 7.88174V5.7064C10.6286 5.59434 10.5732 5.49162 10.488 5.41727C10.4027 5.34291 10.2935 5.30194 10.1803 5.30194C10.0672 5.30194 9.95794 5.34291 9.8727 5.41727C9.78746 5.49162 9.73203 5.59434 9.71667 5.7064V7.88174H9.36134V5.7064C9.36134 5.58458 9.31294 5.46775 9.2268 5.38161C9.14066 5.29546 9.02383 5.24707 8.90201 5.24707C8.78018 5.24707 8.66335 5.29546 8.57721 5.38161C8.49107 5.46775 8.44267 5.58458 8.44267 5.7064V7.88174H8.08734V5.7064C8.07198 5.59434 8.01656 5.49162 7.93131 5.41727C7.84607 5.34291 7.73679 5.30194 7.62367 5.30194C7.51056 5.30194 7.40127 5.34291 7.31603 5.41727C7.23079 5.49162 7.17536 5.59434 7.16001 5.7064V7.88174H6.81334V5.7064C6.79798 5.59434 6.74256 5.49162 6.65731 5.41727C6.57207 5.34291 6.46279 5.30194 6.34967 5.30194C6.23656 5.30194 6.12727 5.34291 6.04203 5.41727C5.95679 5.49162 5.90136 5.59434 5.88601 5.7064V7.88174H5.53067V5.7064C5.53067 5.58458 5.48228 5.46775 5.39614 5.38161C5.30999 5.29546 5.19316 5.24707 5.07134 5.24707C4.94952 5.24707 4.83268 5.29546 4.74654 5.38161C4.6604 5.46775 4.61201 5.58458 4.61201 5.7064V7.88174H4.25667V5.7064C4.24131 5.59434 4.18589 5.49162 4.10065 5.41727C4.01541 5.34291 3.90612 5.30194 3.79301 5.30194C3.67989 5.30194 3.5706 5.34291 3.48536 5.41727C3.40012 5.49162 3.3447 5.59434 3.32934 5.7064V7.88174H3.13867V8.99974H10.8347V7.88174H10.644Z" fill="#A28908"/>
<path d="M19.1893 42.4353C9.66463 42.4353 1.73463 32.8153 0.174629 20.1533H-0.0940378C-0.166428 20.1541 -0.236657 20.1781 -0.294385 20.2218C-0.352113 20.2655 -0.394289 20.3265 -0.414704 20.396L-0.700704 21.4967C-0.712533 21.5452 -0.713171 21.5958 -0.70257 21.6446C-0.691968 21.6934 -0.670404 21.7391 -0.639511 21.7784C-0.608617 21.8176 -0.569203 21.8493 -0.52425 21.8711C-0.479296 21.8928 -0.429982 21.9041 -0.380038 21.904H-0.250037C-0.345371 22.294 -0.432038 22.684 -0.518704 23.0827H-0.796038C-0.871804 23.084 -0.94503 23.1102 -1.00451 23.1572C-1.06399 23.2041 -1.10644 23.2693 -1.12537 23.3427C-1.1947 23.7067 -1.2727 24.0707 -1.34204 24.4433C-1.34949 24.4911 -1.34658 24.54 -1.33352 24.5866C-1.32045 24.6332 -1.29753 24.6764 -1.26631 24.7134C-1.23508 24.7504 -1.19628 24.7802 -1.15253 24.8009C-1.10878 24.8216 -1.0611 24.8327 -1.0127 24.8333H-0.865371L-1.07337 26.012H-1.33337C-1.41241 26.011 -1.48917 26.0385 -1.54963 26.0894C-1.6101 26.1403 -1.65023 26.2113 -1.6627 26.2893C-1.72337 26.6533 -1.77537 27.0173 -1.82737 27.3813C-1.83484 27.428 -1.83217 27.4757 -1.81955 27.5213C-1.80693 27.5668 -1.78465 27.6091 -1.75423 27.6453C-1.72381 27.6815 -1.68596 27.7107 -1.64325 27.7309C-1.60054 27.7512 -1.55397 27.762 -1.5067 27.7627H-1.33337C-1.39404 28.1527 -1.44604 28.5427 -1.49804 28.9413H-1.73204C-1.81237 28.9406 -1.89018 28.9693 -1.95084 29.022C-2.01149 29.0747 -2.0508 29.1477 -2.06137 29.2273L-2.19137 30.3193C-2.19137 30.3193 -2.19137 30.3193 -2.19137 30.38C-2.6294 34.4352 -2.82619 38.5128 -2.7807 42.5913C-2.7807 43.848 -2.7807 45.0267 -2.7807 46.1273C-2.81774 46.6453 -2.6538 47.1576 -2.32294 47.5579C-1.99208 47.9582 -1.51974 48.2156 -1.00404 48.2767H19.25C19.6449 48.2542 20.0214 48.1018 20.3208 47.8431C20.6202 47.5845 20.8257 47.2342 20.9053 46.8467C21.2629 45.4581 21.409 44.0235 21.3386 42.5913C21.3386 42.4873 21.3386 42.3747 21.3386 42.262C20.6278 42.3759 19.9092 42.4338 19.1893 42.4353Z" fill="#A28908"/>
<path d="M1.54389 30.883C1.10164 30.8822 0.675819 31.0505 0.353587 31.3534C0.0313547 31.6563 -0.162913 32.0709 -0.189447 32.5124C-0.41478 35.329 -0.510113 38.2324 -0.484113 41.1097C-0.484113 42.2277 -0.484113 43.2764 -0.484113 44.247C-0.484113 45.2177 0.191887 46.1624 0.980553 46.1624H17.6899C18.0275 46.1344 18.3461 45.9949 18.5956 45.7658C18.8452 45.5366 19.0113 45.231 19.0679 44.897C19.3564 43.6564 19.476 42.3824 19.4232 41.1097C19.4297 38.1558 19.1393 35.2088 18.5566 32.313C18.4846 31.9076 18.2706 31.5411 17.953 31.2791C17.6354 31.0171 17.2349 30.8767 16.8232 30.883H1.54389Z" fill="#84630C"/>
<path d="M12.9998 38.8911L13.9705 38.5444L13.8838 37.8857L12.8698 37.7731L12.6532 37.2097L13.3465 36.4557L12.9998 35.9097L12.0465 36.2824L11.5872 35.8664L11.8472 34.8784L11.2665 34.5837L10.5905 35.3637L10.0098 35.2164L9.77582 34.2197H9.11715L8.88315 35.2164L8.29382 35.3637L7.62648 34.5837L7.03715 34.8957L7.29715 35.8664L6.84648 36.2651L5.89315 35.8924L5.52048 36.4384L6.20515 37.1924L5.99715 37.7557L4.97448 37.8684L4.89648 38.5271L5.85848 38.8737L5.92782 39.4717L5.06115 40.0437L5.29515 40.6591L6.32648 40.5464L6.67315 41.0404L6.18782 41.9071L6.68182 42.3404L7.54848 41.7511L8.08582 42.0284V43.0597L8.72715 43.2157L9.19515 42.2971H9.80182L10.2612 43.2157L10.9025 43.0597V42.0631L11.4312 41.7857L12.2978 42.3751L12.7918 41.9417L12.2978 41.0751L12.6445 40.5811L13.6585 40.7111L13.8925 40.0957L13.0258 39.5237L12.9998 38.8911ZM9.44648 40.3471C9.0501 40.3567 8.66419 40.2192 8.36328 39.961C8.06237 39.7028 7.86781 39.3422 7.81717 38.949C7.76653 38.5557 7.86341 38.1576 8.08909 37.8316C8.31477 37.5056 8.65325 37.2748 9.03915 37.1837V36.7937H9.85382V37.1837C10.2397 37.2748 10.5782 37.5056 10.8039 37.8316C11.0296 38.1576 11.1264 38.5557 11.0758 38.949C11.0252 39.3422 10.8306 39.7028 10.5297 39.961C10.2288 40.2192 9.84287 40.3567 9.44648 40.3471Z" fill="#F3DF73"/>
<path d="M13.2949 45.7549L14.0229 47.9043L27.5949 44.3856L26.1736 40.2256L13.2949 45.7549Z" fill="url(#paint6_linear_14266_14090)"/>
<path d="M35.8559 27.2434L36.5579 29.2974C36.6378 29.5384 36.6433 29.7979 36.5737 30.0421C36.5042 30.2863 36.3628 30.504 36.1679 30.6667L35.7865 29.5487L35.0845 27.4947C35.0452 27.3823 34.9629 27.29 34.8558 27.238C34.7486 27.186 34.6252 27.1786 34.5125 27.2174L26.0885 30.112C25.9761 30.1514 25.8838 30.2336 25.8318 30.3408C25.7799 30.448 25.7724 30.5714 25.8112 30.684L26.4265 32.478L27.7352 36.248L27.1199 36.9587L25.0572 30.944C24.9497 30.6268 24.9723 30.2799 25.1202 29.9794C25.268 29.6788 25.529 29.4492 25.8459 29.3407L34.2612 26.4547C34.5774 26.3522 34.9211 26.3773 35.219 26.5246C35.5169 26.6719 35.7455 26.9299 35.8559 27.2434Z" fill="url(#paint7_linear_14266_14090)"/>
<path d="M32.813 30.4062L38.8537 48.0776L25.3857 45.4256L23.791 40.7542L27.1017 36.9582L27.717 36.2476L32.813 30.4062Z" fill="#FF941B"/>
<path d="M35.7305 29.4154L32.7949 30.4199L38.8387 48.0825L41.7743 47.078L35.7305 29.4154Z" fill="#FF941B"/>
<path d="M25.6198 40.9012L24.9785 40.3119L33.0472 31.4892L35.5085 30.6572L35.7858 31.4719L33.5412 32.2432L25.6198 40.9012Z" fill="url(#paint8_linear_14266_14090)"/>
<g style="mix-blend-mode:multiply" opacity="0.15">
<path d="M38.6016 45.6774C39.5048 45.7379 40.411 45.7379 41.3143 45.6774L41.7823 47.0467L38.8443 48.052L25.3849 45.4L25.2376 44.9667L14.0316 47.9047L13.2949 45.7554L23.9376 41.188L23.7903 40.7547L25.3589 38.9434C28.1063 42.6094 32.9336 45.244 38.6016 45.6774Z" fill="#1D1D1B"/>
</g>
<path d="M30.8902 13.4624H13.4529C13.3379 13.4624 13.2277 13.4167 13.1465 13.3354C13.0652 13.2542 13.0195 13.144 13.0195 13.029C13.0217 12.9148 13.0681 12.8059 13.1489 12.7251C13.2297 12.6443 13.3386 12.5979 13.4529 12.5957H30.8902C31.0051 12.5957 31.1153 12.6414 31.1966 12.7226C31.2779 12.8039 31.3235 12.9141 31.3235 13.029C31.3235 13.144 31.2779 13.2542 31.1966 13.3354C31.1153 13.4167 31.0051 13.4624 30.8902 13.4624Z" fill="url(#paint9_linear_14266_14090)"/>
<path d="M10.3218 10.3867H4.3418V11.2534H10.3218V10.3867Z" fill="url(#paint10_linear_14266_14090)"/>
</g>
</g>
<defs>
<linearGradient id="paint0_linear_14266_14090" x1="24.3453" y1="63.1488" x2="24.3453" y2="7.50017" gradientUnits="userSpaceOnUse">
<stop stop-color="#5716DF"/>
<stop offset="1" stop-color="#784FEC"/>
</linearGradient>
<linearGradient id="paint1_linear_14266_14090" x1="38.6538" y1="19.729" x2="28.7565" y2="33.665" gradientUnits="userSpaceOnUse">
<stop stop-color="#5716DF"/>
<stop offset="1" stop-color="#3C00BC"/>
</linearGradient>
<linearGradient id="paint2_linear_14266_14090" x1="30.4989" y1="12.631" x2="17.2736" y2="26.8703" gradientUnits="userSpaceOnUse">
<stop stop-color="#5716DF"/>
<stop offset="1" stop-color="#3C00BC"/>
</linearGradient>
<linearGradient id="paint3_linear_14266_14090" x1="28.0198" y1="42.9382" x2="37.9171" y2="56.1636" gradientUnits="userSpaceOnUse">
<stop stop-color="#5716DF"/>
<stop offset="1" stop-color="#3C00BC"/>
</linearGradient>
<linearGradient id="paint4_linear_14266_14090" x1="20.6276" y1="42.1236" x2="12.0476" y2="55.2449" gradientUnits="userSpaceOnUse">
<stop stop-color="#5716DF"/>
<stop offset="1" stop-color="#3C00BC"/>
</linearGradient>
<linearGradient id="paint5_linear_14266_14090" x1="9.46381" y1="10.0566" x2="9.46381" y2="48.2766" gradientUnits="userSpaceOnUse">
<stop stop-color="#F3DF73"/>
<stop offset="1" stop-color="#A28908"/>
</linearGradient>
<linearGradient id="paint6_linear_14266_14090" x1="20.1936" y1="41.4996" x2="20.4969" y2="45.8936" gradientUnits="userSpaceOnUse">
<stop stop-color="#D6D6D6"/>
<stop offset="1" stop-color="#A8A8A8"/>
</linearGradient>
<linearGradient id="paint7_linear_14266_14090" x1="30.3092" y1="26.81" x2="31.5225" y2="34.9827" gradientUnits="userSpaceOnUse">
<stop stop-color="#D6D6D6"/>
<stop offset="1" stop-color="#A8A8A8"/>
</linearGradient>
<linearGradient id="paint8_linear_14266_14090" x1="24.9785" y1="35.7792" x2="35.7858" y2="35.7792" gradientUnits="userSpaceOnUse">
<stop stop-color="white" stop-opacity="0"/>
<stop offset="1" stop-color="white"/>
</linearGradient>
<linearGradient id="paint9_linear_14266_14090" x1="13.0195" y1="13.029" x2="31.3235" y2="13.029" gradientUnits="userSpaceOnUse">
<stop stop-color="white" stop-opacity="0"/>
<stop offset="1" stop-color="white"/>
</linearGradient>
<linearGradient id="paint10_linear_14266_14090" x1="4.3418" y1="10.8201" x2="10.3305" y2="10.8201" gradientUnits="userSpaceOnUse">
<stop stop-color="white" stop-opacity="0"/>
<stop offset="1" stop-color="white"/>
</linearGradient>
</defs>
</svg>
